<svg xmlns="http://www.w3.org/2000/svg" viewBox="0 0 540 230" width="100%" height="100%">
    <style>
      .bg { fill: #0d1117; rx: 6px; }
      .line { fill: none; stroke: #39d353; stroke-width: 3.5; stroke-linecap: round; stroke-linejoin: round; }
      .dot { fill: #39d353; stroke: #0d1117; stroke-width: 1.5; }
      .text { fill: #8b949e; font-family: -apple-system, BlinkMacSystemFont, "Segoe UI", sans-serif; font-size: 11px; }
      .title { fill: #c9d1d9; font-size: 14px; font-weight: 600; }
      .axis { stroke: #30363d; stroke-width: 1; }
    </style>
    <rect width="540" height="230" class="bg" />
    <text x="25" y="30" class="text title">Past 12 Months Activity</text>
    
    
        <line x1="65" y1="170.0" x2="510" y2="170.0" stroke="#21262d" stroke-dasharray="4" />
        <text x="55" y="174.0" text-anchor="end" class="text">0</text>
        
        <line x1="65" y1="110.0" x2="510" y2="110.0" stroke="#21262d" stroke-dasharray="4" />
        <text x="55" y="114.0" text-anchor="end" class="text">50</text>
        
        <line x1="65" y1="50.0" x2="510" y2="50.0" stroke="#21262d" stroke-dasharray="4" />
        <text x="55" y="54.0" text-anchor="end" class="text">100</text>
        
    
    <line x1="65" y1="50" x2="65" y2="170" class="axis" />
    
    <path d="M 70 160.4 C 85 160.4, 95 166.4, 110 166.4 C 125 166.4, 135 148.4, 150 148.4 C 165 148.4, 175 88.39999999999999, 190 88.39999999999999 C 205 88.39999999999999, 215 155.6, 230 155.6 C 245 155.6, 255 138.8, 270 138.8 C 285 138.8, 295 134.0, 310 134.0 C 325 134.0, 335 134.0, 350 134.0 C 365 134.0, 375 118.4, 390 118.4 C 405 118.4, 415 165.2, 430 165.2 C 445 165.2, 455 160.4, 470 160.4 C 485 160.4, 495 132.8, 510 132.8" class="line" />
    
    
        <circle cx="70" cy="160.4" r="3.5" class="dot" />
        <text x="70" y="195" text-anchor="middle" class="text">Jul</text>
        
        <circle cx="110" cy="166.4" r="3.5" class="dot" />
        <text x="110" y="195" text-anchor="middle" class="text">Aug</text>
        
        <circle cx="150" cy="148.4" r="3.5" class="dot" />
        <text x="150" y="195" text-anchor="middle" class="text">Sep</text>
        
        <circle cx="190" cy="88.39999999999999" r="3.5" class="dot" />
        <text x="190" y="195" text-anchor="middle" class="text">Oct</text>
        
        <circle cx="230" cy="155.6" r="3.5" class="dot" />
        <text x="230" y="195" text-anchor="middle" class="text">Nov</text>
        
        <circle cx="270" cy="138.8" r="3.5" class="dot" />
        <text x="270" y="195" text-anchor="middle" class="text">Dec</text>
        
        <circle cx="310" cy="134.0" r="3.5" class="dot" />
        <text x="310" y="195" text-anchor="middle" class="text">Jan</text>
        
        <circle cx="350" cy="134.0" r="3.5" class="dot" />
        <text x="350" y="195" text-anchor="middle" class="text">Feb</text>
        
        <circle cx="390" cy="118.4" r="3.5" class="dot" />
        <text x="390" y="195" text-anchor="middle" class="text">Mar</text>
        
        <circle cx="430" cy="165.2" r="3.5" class="dot" />
        <text x="430" y="195" text-anchor="middle" class="text">Apr</text>
        
        <circle cx="470" cy="160.4" r="3.5" class="dot" />
        <text x="470" y="195" text-anchor="middle" class="text">May</text>
        
        <circle cx="510" cy="132.8" r="3.5" class="dot" />
        <text x="510" y="195" text-anchor="middle" class="text">Jun</text>
        
  </svg>