<svg xmlns="http://www.w3.org/2000/svg" viewBox="0 0 540 230" width="100%" height="100%">
    <style>
      .bg { fill: #0d1117; rx: 6px; }
      .line { fill: none; stroke: #39d353; stroke-width: 3.5; stroke-linecap: round; stroke-linejoin: round; }
      .dot { fill: #39d353; stroke: #0d1117; stroke-width: 1.5; }
      .text { fill: #8b949e; font-family: -apple-system, BlinkMacSystemFont, "Segoe UI", sans-serif; font-size: 11px; }
      .title { fill: #c9d1d9; font-size: 14px; font-weight: 600; }
      .axis { stroke: #30363d; stroke-width: 1; }
    </style>
    <rect width="540" height="230" class="bg" />
    
    
        <line x1="65" y1="170.0" x2="510" y2="170.0" stroke="#21262d" stroke-dasharray="4" />
        <text x="55" y="174.0" text-anchor="end" class="text">0</text>
        
        <line x1="65" y1="110.0" x2="510" y2="110.0" stroke="#21262d" stroke-dasharray="4" />
        <text x="55" y="114.0" text-anchor="end" class="text">75</text>
        
        <line x1="65" y1="50.0" x2="510" y2="50.0" stroke="#21262d" stroke-dasharray="4" />
        <text x="55" y="54.0" text-anchor="end" class="text">150</text>
        
    
    <line x1="65" y1="50" x2="65" y2="170" class="axis" />
    
    <path d="M 70 163.6 C 85 163.6, 95 167.6, 110 167.6 C 125 167.6, 135 155.6, 150 155.6 C 165 155.6, 175 115.6, 190 115.6 C 205 115.6, 215 160.4, 230 160.4 C 245 160.4, 255 149.2, 270 149.2 C 285 149.2, 295 146.0, 310 146.0 C 325 146.0, 335 146.0, 350 146.0 C 365 146.0, 375 135.6, 390 135.6 C 405 135.6, 415 166.8, 430 166.8 C 445 166.8, 455 163.6, 470 163.6 C 485 163.6, 495 86.0, 510 86.0" class="line" />
    
    
        <circle cx="70" cy="163.6" r="3.5" class="dot" />
        <text x="70" y="195" text-anchor="middle" class="text">Jul</text>
        
        <circle cx="110" cy="167.6" r="3.5" class="dot" />
        <text x="110" y="195" text-anchor="middle" class="text">Aug</text>
        
        <circle cx="150" cy="155.6" r="3.5" class="dot" />
        <text x="150" y="195" text-anchor="middle" class="text">Sep</text>
        
        <circle cx="190" cy="115.6" r="3.5" class="dot" />
        <text x="190" y="195" text-anchor="middle" class="text">Oct</text>
        
        <circle cx="230" cy="160.4" r="3.5" class="dot" />
        <text x="230" y="195" text-anchor="middle" class="text">Nov</text>
        
        <circle cx="270" cy="149.2" r="3.5" class="dot" />
        <text x="270" y="195" text-anchor="middle" class="text">Dec</text>
        
        <circle cx="310" cy="146.0" r="3.5" class="dot" />
        <text x="310" y="195" text-anchor="middle" class="text">Jan</text>
        
        <circle cx="350" cy="146.0" r="3.5" class="dot" />
        <text x="350" y="195" text-anchor="middle" class="text">Feb</text>
        
        <circle cx="390" cy="135.6" r="3.5" class="dot" />
        <text x="390" y="195" text-anchor="middle" class="text">Mar</text>
        
        <circle cx="430" cy="166.8" r="3.5" class="dot" />
        <text x="430" y="195" text-anchor="middle" class="text">Apr</text>
        
        <circle cx="470" cy="163.6" r="3.5" class="dot" />
        <text x="470" y="195" text-anchor="middle" class="text">May</text>
        
        <circle cx="510" cy="86.0" r="3.5" class="dot" />
        <text x="510" y="195" text-anchor="middle" class="text">Jun</text>
        
  </svg>