<svg xmlns="http://www.w3.org/2000/svg" viewBox="0 0 540 230" width="100%" height="100%">
    <style>
      .bg { fill: #0d1117; rx: 6px; }
      .line { fill: none; stroke: #39d353; stroke-width: 3.5; stroke-linecap: round; stroke-linejoin: round; }
      .dot { fill: #39d353; stroke: #0d1117; stroke-width: 1.5; }
      .text { fill: #8b949e; font-family: -apple-system, BlinkMacSystemFont, "Segoe UI", sans-serif; font-size: 11px; }
      .title { fill: #c9d1d9; font-size: 14px; font-weight: 600; }
      .axis { stroke: #30363d; stroke-width: 1; }
    </style>
    <rect width="540" height="230" class="bg" />
    
    
        <line x1="65" y1="170.0" x2="510" y2="170.0" stroke="#21262d" stroke-dasharray="4" />
        <text x="55" y="174.0" text-anchor="end" class="text">0</text>
        
        <line x1="65" y1="110.0" x2="510" y2="110.0" stroke="#21262d" stroke-dasharray="4" />
        <text x="55" y="114.0" text-anchor="end" class="text">75</text>
        
        <line x1="65" y1="50.0" x2="510" y2="50.0" stroke="#21262d" stroke-dasharray="4" />
        <text x="55" y="54.0" text-anchor="end" class="text">150</text>
        
    
    <line x1="65" y1="50" x2="65" y2="170" class="axis" />
    
    <path d="M 70 167.6 C 85 167.6, 95 155.6, 110 155.6 C 125 155.6, 135 115.6, 150 115.6 C 165 115.6, 175 160.4, 190 160.4 C 205 160.4, 215 149.2, 230 149.2 C 245 149.2, 255 146.0, 270 146.0 C 285 146.0, 295 146.0, 310 146.0 C 325 146.0, 335 135.6, 350 135.6 C 365 135.6, 375 166.8, 390 166.8 C 405 166.8, 415 163.6, 430 163.6 C 445 163.6, 455 80.39999999999999, 470 80.39999999999999 C 485 80.39999999999999, 495 134.8, 510 134.8" class="line" />
    
    
        <circle cx="70" cy="167.6" r="3.5" class="dot" />
        <text x="70" y="195" text-anchor="middle" class="text">Aug</text>
        
        <circle cx="110" cy="155.6" r="3.5" class="dot" />
        <text x="110" y="195" text-anchor="middle" class="text">Sep</text>
        
        <circle cx="150" cy="115.6" r="3.5" class="dot" />
        <text x="150" y="195" text-anchor="middle" class="text">Oct</text>
        
        <circle cx="190" cy="160.4" r="3.5" class="dot" />
        <text x="190" y="195" text-anchor="middle" class="text">Nov</text>
        
        <circle cx="230" cy="149.2" r="3.5" class="dot" />
        <text x="230" y="195" text-anchor="middle" class="text">Dec</text>
        
        <circle cx="270" cy="146.0" r="3.5" class="dot" />
        <text x="270" y="195" text-anchor="middle" class="text">Jan</text>
        
        <circle cx="310" cy="146.0" r="3.5" class="dot" />
        <text x="310" y="195" text-anchor="middle" class="text">Feb</text>
        
        <circle cx="350" cy="135.6" r="3.5" class="dot" />
        <text x="350" y="195" text-anchor="middle" class="text">Mar</text>
        
        <circle cx="390" cy="166.8" r="3.5" class="dot" />
        <text x="390" y="195" text-anchor="middle" class="text">Apr</text>
        
        <circle cx="430" cy="163.6" r="3.5" class="dot" />
        <text x="430" y="195" text-anchor="middle" class="text">May</text>
        
        <circle cx="470" cy="80.39999999999999" r="3.5" class="dot" />
        <text x="470" y="195" text-anchor="middle" class="text">Jun</text>
        
        <circle cx="510" cy="134.8" r="3.5" class="dot" />
        <text x="510" y="195" text-anchor="middle" class="text">Jul</text>
        
  </svg>